{
  "asset": {
    "version": "2.0"
  },
  "scenes": [
    {
      "nodes": [
        0
      ]
    }
  ],
  "nodes": [
    {
      "mesh": 0
    }
  ],
  "meshes": [
    {
      "primitives": [
        {
          "attributes": {
            "POSITION": 0,
            "NORMAL": 1,
            "TEXCOORD_0": 2
          },
          "indices": 3,
          "material": 0
        },
        {
          "attributes": {
            "POSITION": 4,
            "NORMAL": 5,
            "TEXCOORD_0": 6
          },
          "indices": 7,
          "material": 1
        }
      ]
    }
  ],
  "materials": [
    {
      "name": "Standard",
      "pbrMetallicRoughness": {
        "baseColorTexture": {
          "index": 0
        },
        "metallicFactor": 0.0,
        "roughnessFactor": 0.8
      }
    },
    {
      "name": "Emissive",
      "pbrMetallicRoughness": {
        "baseColorTexture": {
          "index": 0
        },
        "metallicFactor": 0.0,
        "roughnessFactor": 0.8
      },
      "emissiveTexture": {
        "index": 0
      },
      "emissiveFactor": [
        1.0,
        1.0,
        1.0
      ]
    }
  ],
  "textures": [
    {
      "source": 0
    }
  ],
  "images": [
    {
      "uri": "palette_texture.png"
    }
  ],
  "samplers": [
    {
      "magFilter": 9728,
      "minFilter": 9728
    }
  ],
  "bufferViews": [
    {
      "buffer": 0,
      "byteOffset": 0,
      "byteLength": 38544,
      "target": 34962
    },
    {
      "buffer": 0,
      "byteOffset": 38544,
      "byteLength": 38544,
      "target": 34962
    },
    {
      "buffer": 0,
      "byteOffset": 77088,
      "byteLength": 25696,
      "target": 34962
    },
    {
      "buffer": 0,
      "byteOffset": 102784,
      "byteLength": 19272,
      "target": 34963
    },
    {
      "buffer": 0,
      "byteOffset": 122056,
      "byteLength": 240,
      "target": 34962
    },
    {
      "buffer": 0,
      "byteOffset": 122296,
      "byteLength": 240,
      "target": 34962
    },
    {
      "buffer": 0,
      "byteOffset": 122536,
      "byteLength": 160,
      "target": 34962
    },
    {
      "buffer": 0,
      "byteOffset": 122696,
      "byteLength": 120,
      "target": 34963
    }
  ],
  "accessors": [
    {
      "bufferView": 0,
      "componentType": 5126,
      "count": 3212,
      "type": "VEC3",
      "max": [
        26.0,
        51.0,
        9.0
      ],
      "min": [
        -24.0,
        0.0,
        -6.0
      ]
    },
    {
      "bufferView": 1,
      "componentType": 5126,
      "count": 3212,
      "type": "VEC3"
    },
    {
      "bufferView": 2,
      "componentType": 5126,
      "count": 3212,
      "type": "VEC2"
    },
    {
      "bufferView": 3,
      "componentType": 5125,
      "count": 4818,
      "type": "SCALAR"
    },
    {
      "bufferView": 4,
      "componentType": 5126,
      "count": 20,
      "type": "VEC3",
      "max": [
        23.0,
        19.0,
        -6.0
      ],
      "min": [
        22.0,
        18.0,
        -7.0
      ]
    },
    {
      "bufferView": 5,
      "componentType": 5126,
      "count": 20,
      "type": "VEC3"
    },
    {
      "bufferView": 6,
      "componentType": 5126,
      "count": 20,
      "type": "VEC2"
    },
    {
      "bufferView": 7,
      "componentType": 5125,
      "count": 30,
      "type": "SCALAR"
    }
  ],
  "buffers": [
    {
      "byteLength": 122816,
      "uri": "character_logical.bin"
    }
  ]
}