{
  "asset": {
    "version": "2.0"
  },
  "scenes": [
    {
      "nodes": [
        0
      ]
    }
  ],
  "nodes": [
    {
      "mesh": 0
    }
  ],
  "meshes": [
    {
      "primitives": [
        {
          "attributes": {
            "POSITION": 0,
            "NORMAL": 1,
            "TEXCOORD_0": 2
          },
          "indices": 3,
          "material": 0
        },
        {
          "attributes": {
            "POSITION": 4,
            "NORMAL": 5,
            "TEXCOORD_0": 6
          },
          "indices": 7,
          "material": 1
        }
      ]
    }
  ],
  "materials": [
    {
      "name": "Standard",
      "pbrMetallicRoughness": {
        "baseColorTexture": {
          "index": 0
        },
        "metallicFactor": 0.0,
        "roughnessFactor": 0.8
      }
    },
    {
      "name": "Emissive",
      "pbrMetallicRoughness": {
        "baseColorTexture": {
          "index": 0
        },
        "metallicFactor": 0.0,
        "roughnessFactor": 0.8
      },
      "emissiveTexture": {
        "index": 0
      },
      "emissiveFactor": [
        1.0,
        1.0,
        1.0
      ]
    }
  ],
  "textures": [
    {
      "source": 0
    }
  ],
  "images": [
    {
      "uri": "palette_texture.png"
    }
  ],
  "samplers": [
    {
      "magFilter": 9728,
      "minFilter": 9728
    }
  ],
  "bufferViews": [
    {
      "buffer": 0,
      "byteOffset": 0,
      "byteLength": 84768,
      "target": 34962
    },
    {
      "buffer": 0,
      "byteOffset": 84768,
      "byteLength": 84768,
      "target": 34962
    },
    {
      "buffer": 0,
      "byteOffset": 169536,
      "byteLength": 56512,
      "target": 34962
    },
    {
      "buffer": 0,
      "byteOffset": 226048,
      "byteLength": 42384,
      "target": 34963
    },
    {
      "buffer": 0,
      "byteOffset": 268432,
      "byteLength": 192,
      "target": 34962
    },
    {
      "buffer": 0,
      "byteOffset": 268624,
      "byteLength": 192,
      "target": 34962
    },
    {
      "buffer": 0,
      "byteOffset": 268816,
      "byteLength": 128,
      "target": 34962
    },
    {
      "buffer": 0,
      "byteOffset": 268944,
      "byteLength": 96,
      "target": 34963
    }
  ],
  "accessors": [
    {
      "bufferView": 0,
      "componentType": 5126,
      "count": 7064,
      "type": "VEC3",
      "max": [
        24.0,
        55.0,
        5.0
      ],
      "min": [
        -22.0,
        0.0,
        -4.0
      ]
    },
    {
      "bufferView": 1,
      "componentType": 5126,
      "count": 7064,
      "type": "VEC3"
    },
    {
      "bufferView": 2,
      "componentType": 5126,
      "count": 7064,
      "type": "VEC2"
    },
    {
      "bufferView": 3,
      "componentType": 5125,
      "count": 10596,
      "type": "SCALAR"
    },
    {
      "bufferView": 4,
      "componentType": 5126,
      "count": 16,
      "type": "VEC3",
      "max": [
        19.0,
        37.0,
        2.0
      ],
      "min": [
        11.0,
        31.0,
        -2.0
      ]
    },
    {
      "bufferView": 5,
      "componentType": 5126,
      "count": 16,
      "type": "VEC3"
    },
    {
      "bufferView": 6,
      "componentType": 5126,
      "count": 16,
      "type": "VEC2"
    },
    {
      "bufferView": 7,
      "componentType": 5125,
      "count": 24,
      "type": "SCALAR"
    }
  ],
  "buffers": [
    {
      "byteLength": 269040,
      "uri": "figurine_hero.bin"
    }
  ]
}