{
  "asset": {
    "version": "2.0"
  },
  "scenes": [
    {
      "nodes": [
        0
      ]
    }
  ],
  "nodes": [
    {
      "mesh": 0
    }
  ],
  "meshes": [
    {
      "primitives": [
        {
          "attributes": {
            "POSITION": 0,
            "NORMAL": 1,
            "TEXCOORD_0": 2
          },
          "indices": 3,
          "material": 0
        },
        {
          "attributes": {
            "POSITION": 4,
            "NORMAL": 5,
            "TEXCOORD_0": 6
          },
          "indices": 7,
          "material": 1
        }
      ]
    }
  ],
  "materials": [
    {
      "name": "Standard",
      "pbrMetallicRoughness": {
        "baseColorTexture": {
          "index": 0
        },
        "metallicFactor": 0.0,
        "roughnessFactor": 0.8
      }
    },
    {
      "name": "Emissive",
      "pbrMetallicRoughness": {
        "baseColorTexture": {
          "index": 0
        },
        "metallicFactor": 0.0,
        "roughnessFactor": 0.8
      },
      "emissiveTexture": {
        "index": 0
      },
      "emissiveFactor": [
        1.0,
        1.0,
        1.0
      ]
    }
  ],
  "textures": [
    {
      "source": 0
    }
  ],
  "images": [
    {
      "uri": "palette_texture.png"
    }
  ],
  "samplers": [
    {
      "magFilter": 9728,
      "minFilter": 9728
    }
  ],
  "bufferViews": [
    {
      "buffer": 0,
      "byteOffset": 0,
      "byteLength": 495504,
      "target": 34962
    },
    {
      "buffer": 0,
      "byteOffset": 495504,
      "byteLength": 495504,
      "target": 34962
    },
    {
      "buffer": 0,
      "byteOffset": 991008,
      "byteLength": 330336,
      "target": 34962
    },
    {
      "buffer": 0,
      "byteOffset": 1321344,
      "byteLength": 247752,
      "target": 34963
    },
    {
      "buffer": 0,
      "byteOffset": 1569096,
      "byteLength": 6288,
      "target": 34962
    },
    {
      "buffer": 0,
      "byteOffset": 1575384,
      "byteLength": 6288,
      "target": 34962
    },
    {
      "buffer": 0,
      "byteOffset": 1581672,
      "byteLength": 4192,
      "target": 34962
    },
    {
      "buffer": 0,
      "byteOffset": 1585864,
      "byteLength": 3144,
      "target": 34963
    }
  ],
  "accessors": [
    {
      "bufferView": 0,
      "componentType": 5126,
      "count": 41292,
      "type": "VEC3",
      "max": [
        174.0,
        209.0,
        317.0
      ],
      "min": [
        -172.0,
        0.0,
        -316.0
      ]
    },
    {
      "bufferView": 1,
      "componentType": 5126,
      "count": 41292,
      "type": "VEC3"
    },
    {
      "bufferView": 2,
      "componentType": 5126,
      "count": 41292,
      "type": "VEC2"
    },
    {
      "bufferView": 3,
      "componentType": 5125,
      "count": 61938,
      "type": "SCALAR"
    },
    {
      "bufferView": 4,
      "componentType": 5126,
      "count": 524,
      "type": "VEC3",
      "max": [
        -58.0,
        82.0,
        203.0
      ],
      "min": [
        -162.0,
        18.0,
        74.0
      ]
    },
    {
      "bufferView": 5,
      "componentType": 5126,
      "count": 524,
      "type": "VEC3"
    },
    {
      "bufferView": 6,
      "componentType": 5126,
      "count": 524,
      "type": "VEC2"
    },
    {
      "bufferView": 7,
      "componentType": 5125,
      "count": 786,
      "type": "SCALAR"
    }
  ],
  "buffers": [
    {
      "byteLength": 1589008,
      "uri": "final_scene.bin"
    }
  ]
}