{
  "asset": {
    "version": "2.0"
  },
  "scenes": [
    {
      "nodes": [
        0
      ]
    }
  ],
  "nodes": [
    {
      "mesh": 0
    }
  ],
  "meshes": [
    {
      "primitives": [
        {
          "attributes": {
            "POSITION": 0,
            "NORMAL": 1,
            "TEXCOORD_0": 2
          },
          "indices": 3,
          "material": 0
        },
        {
          "attributes": {
            "POSITION": 4,
            "NORMAL": 5,
            "TEXCOORD_0": 6
          },
          "indices": 7,
          "material": 1
        }
      ]
    }
  ],
  "materials": [
    {
      "name": "Standard",
      "pbrMetallicRoughness": {
        "baseColorTexture": {
          "index": 0
        },
        "metallicFactor": 0.0,
        "roughnessFactor": 0.8
      }
    },
    {
      "name": "Emissive",
      "pbrMetallicRoughness": {
        "baseColorTexture": {
          "index": 0
        },
        "metallicFactor": 0.0,
        "roughnessFactor": 0.8
      },
      "emissiveTexture": {
        "index": 0
      },
      "emissiveFactor": [
        1.0,
        1.0,
        1.0
      ]
    }
  ],
  "textures": [
    {
      "source": 0
    }
  ],
  "images": [
    {
      "uri": "palette_texture.png"
    }
  ],
  "samplers": [
    {
      "magFilter": 9728,
      "minFilter": 9728
    }
  ],
  "bufferViews": [
    {
      "buffer": 0,
      "byteOffset": 0,
      "byteLength": 3995760,
      "target": 34962
    },
    {
      "buffer": 0,
      "byteOffset": 3995760,
      "byteLength": 3995760,
      "target": 34962
    },
    {
      "buffer": 0,
      "byteOffset": 7991520,
      "byteLength": 2663840,
      "target": 34962
    },
    {
      "buffer": 0,
      "byteOffset": 10655360,
      "byteLength": 1997880,
      "target": 34963
    },
    {
      "buffer": 0,
      "byteOffset": 12653240,
      "byteLength": 10368,
      "target": 34962
    },
    {
      "buffer": 0,
      "byteOffset": 12663608,
      "byteLength": 10368,
      "target": 34962
    },
    {
      "buffer": 0,
      "byteOffset": 12673976,
      "byteLength": 6912,
      "target": 34962
    },
    {
      "buffer": 0,
      "byteOffset": 12680888,
      "byteLength": 5184,
      "target": 34963
    }
  ],
  "accessors": [
    {
      "bufferView": 0,
      "componentType": 5126,
      "count": 332980,
      "type": "VEC3",
      "max": [
        86.0,
        105.0,
        75.0
      ],
      "min": [
        -84.0,
        0.0,
        -73.0
      ]
    },
    {
      "bufferView": 1,
      "componentType": 5126,
      "count": 332980,
      "type": "VEC3"
    },
    {
      "bufferView": 2,
      "componentType": 5126,
      "count": 332980,
      "type": "VEC2"
    },
    {
      "bufferView": 3,
      "componentType": 5125,
      "count": 499470,
      "type": "SCALAR"
    },
    {
      "bufferView": 4,
      "componentType": 5126,
      "count": 864,
      "type": "VEC3",
      "max": [
        49.0,
        12.0,
        49.0
      ],
      "min": [
        38.0,
        0.0,
        38.0
      ]
    },
    {
      "bufferView": 5,
      "componentType": 5126,
      "count": 864,
      "type": "VEC3"
    },
    {
      "bufferView": 6,
      "componentType": 5126,
      "count": 864,
      "type": "VEC2"
    },
    {
      "bufferView": 7,
      "componentType": 5125,
      "count": 1296,
      "type": "SCALAR"
    }
  ],
  "buffers": [
    {
      "byteLength": 12686072,
      "uri": "high_density_cave.bin"
    }
  ]
}