{
  "asset": {
    "version": "2.0"
  },
  "scenes": [
    {
      "nodes": [
        0
      ]
    }
  ],
  "nodes": [
    {
      "mesh": 0
    }
  ],
  "meshes": [
    {
      "primitives": [
        {
          "attributes": {
            "POSITION": 0,
            "NORMAL": 1,
            "TEXCOORD_0": 2
          },
          "indices": 3,
          "material": 0
        },
        {
          "attributes": {
            "POSITION": 4,
            "NORMAL": 5,
            "TEXCOORD_0": 6
          },
          "indices": 7,
          "material": 1
        }
      ]
    }
  ],
  "materials": [
    {
      "name": "Standard",
      "pbrMetallicRoughness": {
        "baseColorTexture": {
          "index": 0
        },
        "metallicFactor": 0.0,
        "roughnessFactor": 0.8
      }
    },
    {
      "name": "Emissive",
      "pbrMetallicRoughness": {
        "baseColorTexture": {
          "index": 0
        },
        "metallicFactor": 0.0,
        "roughnessFactor": 0.8
      },
      "emissiveTexture": {
        "index": 0
      },
      "emissiveFactor": [
        1.0,
        1.0,
        1.0
      ]
    }
  ],
  "textures": [
    {
      "source": 0
    }
  ],
  "images": [
    {
      "uri": "palette_texture.png"
    }
  ],
  "samplers": [
    {
      "magFilter": 9728,
      "minFilter": 9728
    }
  ],
  "bufferViews": [
    {
      "buffer": 0,
      "byteOffset": 0,
      "byteLength": 43968,
      "target": 34962
    },
    {
      "buffer": 0,
      "byteOffset": 43968,
      "byteLength": 43968,
      "target": 34962
    },
    {
      "buffer": 0,
      "byteOffset": 87936,
      "byteLength": 29312,
      "target": 34962
    },
    {
      "buffer": 0,
      "byteOffset": 117248,
      "byteLength": 21984,
      "target": 34963
    },
    {
      "buffer": 0,
      "byteOffset": 139232,
      "byteLength": 14592,
      "target": 34962
    },
    {
      "buffer": 0,
      "byteOffset": 153824,
      "byteLength": 14592,
      "target": 34962
    },
    {
      "buffer": 0,
      "byteOffset": 168416,
      "byteLength": 9728,
      "target": 34962
    },
    {
      "buffer": 0,
      "byteOffset": 178144,
      "byteLength": 7296,
      "target": 34963
    }
  ],
  "accessors": [
    {
      "bufferView": 0,
      "componentType": 5126,
      "count": 3664,
      "type": "VEC3",
      "max": [
        13.0,
        63.0,
        14.0
      ],
      "min": [
        -11.0,
        0.0,
        -12.0
      ]
    },
    {
      "bufferView": 1,
      "componentType": 5126,
      "count": 3664,
      "type": "VEC3"
    },
    {
      "bufferView": 2,
      "componentType": 5126,
      "count": 3664,
      "type": "VEC2"
    },
    {
      "bufferView": 3,
      "componentType": 5125,
      "count": 5496,
      "type": "SCALAR"
    },
    {
      "bufferView": 4,
      "componentType": 5126,
      "count": 1216,
      "type": "VEC3",
      "max": [
        2.0,
        64.0,
        -3.0
      ],
      "min": [
        -12.0,
        46.0,
        -13.0
      ]
    },
    {
      "bufferView": 5,
      "componentType": 5126,
      "count": 1216,
      "type": "VEC3"
    },
    {
      "bufferView": 6,
      "componentType": 5126,
      "count": 1216,
      "type": "VEC2"
    },
    {
      "bufferView": 7,
      "componentType": 5125,
      "count": 1824,
      "type": "SCALAR"
    }
  ],
  "buffers": [
    {
      "byteLength": 185440,
      "uri": "pyromancer_hd.bin"
    }
  ]
}