{
  "asset": {
    "version": "2.0"
  },
  "scenes": [
    {
      "nodes": [
        0
      ]
    }
  ],
  "nodes": [
    {
      "mesh": 0
    }
  ],
  "meshes": [
    {
      "primitives": [
        {
          "attributes": {
            "POSITION": 0,
            "NORMAL": 1,
            "TEXCOORD_0": 2
          },
          "indices": 3,
          "material": 0
        },
        {
          "attributes": {
            "POSITION": 4,
            "NORMAL": 5,
            "TEXCOORD_0": 6
          },
          "indices": 7,
          "material": 1
        }
      ]
    }
  ],
  "materials": [
    {
      "name": "Standard",
      "pbrMetallicRoughness": {
        "baseColorTexture": {
          "index": 0
        },
        "metallicFactor": 0.0,
        "roughnessFactor": 0.8
      }
    },
    {
      "name": "Emissive",
      "pbrMetallicRoughness": {
        "baseColorTexture": {
          "index": 0
        },
        "metallicFactor": 0.0,
        "roughnessFactor": 0.8
      },
      "emissiveTexture": {
        "index": 0
      },
      "emissiveFactor": [
        1.0,
        1.0,
        1.0
      ]
    }
  ],
  "textures": [
    {
      "source": 0
    }
  ],
  "images": [
    {
      "uri": "palette_texture.png"
    }
  ],
  "samplers": [
    {
      "magFilter": 9728,
      "minFilter": 9728
    }
  ],
  "bufferViews": [
    {
      "buffer": 0,
      "byteOffset": 0,
      "byteLength": 9600,
      "target": 34962
    },
    {
      "buffer": 0,
      "byteOffset": 9600,
      "byteLength": 9600,
      "target": 34962
    },
    {
      "buffer": 0,
      "byteOffset": 19200,
      "byteLength": 6400,
      "target": 34962
    },
    {
      "buffer": 0,
      "byteOffset": 25600,
      "byteLength": 4800,
      "target": 34963
    },
    {
      "buffer": 0,
      "byteOffset": 30400,
      "byteLength": 6192,
      "target": 34962
    },
    {
      "buffer": 0,
      "byteOffset": 36592,
      "byteLength": 6192,
      "target": 34962
    },
    {
      "buffer": 0,
      "byteOffset": 42784,
      "byteLength": 4128,
      "target": 34962
    },
    {
      "buffer": 0,
      "byteOffset": 46912,
      "byteLength": 3096,
      "target": 34963
    }
  ],
  "accessors": [
    {
      "bufferView": 0,
      "componentType": 5126,
      "count": 800,
      "type": "VEC3",
      "max": [
        10.0,
        32.0,
        8.0
      ],
      "min": [
        -9.0,
        0.0,
        -6.0
      ]
    },
    {
      "bufferView": 1,
      "componentType": 5126,
      "count": 800,
      "type": "VEC3"
    },
    {
      "bufferView": 2,
      "componentType": 5126,
      "count": 800,
      "type": "VEC2"
    },
    {
      "bufferView": 3,
      "componentType": 5125,
      "count": 1200,
      "type": "SCALAR"
    },
    {
      "bufferView": 4,
      "componentType": 5126,
      "count": 516,
      "type": "VEC3",
      "max": [
        0.0,
        34.0,
        1.0
      ],
      "min": [
        -9.0,
        20.0,
        -6.0
      ]
    },
    {
      "bufferView": 5,
      "componentType": 5126,
      "count": 516,
      "type": "VEC3"
    },
    {
      "bufferView": 6,
      "componentType": 5126,
      "count": 516,
      "type": "VEC2"
    },
    {
      "bufferView": 7,
      "componentType": 5125,
      "count": 774,
      "type": "SCALAR"
    }
  ],
  "buffers": [
    {
      "byteLength": 50008,
      "uri": "pyromancer.bin"
    }
  ]
}