{
  "asset": {
    "version": "2.0"
  },
  "scenes": [
    {
      "nodes": [
        0
      ]
    }
  ],
  "nodes": [
    {
      "mesh": 0
    }
  ],
  "meshes": [
    {
      "primitives": [
        {
          "attributes": {
            "POSITION": 0,
            "NORMAL": 1,
            "TEXCOORD_0": 2
          },
          "indices": 3,
          "material": 0
        },
        {
          "attributes": {
            "POSITION": 4,
            "NORMAL": 5,
            "TEXCOORD_0": 6
          },
          "indices": 7,
          "material": 1
        }
      ]
    }
  ],
  "materials": [
    {
      "name": "Standard",
      "pbrMetallicRoughness": {
        "baseColorTexture": {
          "index": 0
        },
        "metallicFactor": 0.0,
        "roughnessFactor": 0.8
      }
    },
    {
      "name": "Emissive",
      "pbrMetallicRoughness": {
        "baseColorTexture": {
          "index": 0
        },
        "metallicFactor": 0.0,
        "roughnessFactor": 0.8
      },
      "emissiveTexture": {
        "index": 0
      },
      "emissiveFactor": [
        1.0,
        1.0,
        1.0
      ]
    }
  ],
  "textures": [
    {
      "source": 0
    }
  ],
  "images": [
    {
      "uri": "palette_texture.png"
    }
  ],
  "samplers": [
    {
      "magFilter": 9728,
      "minFilter": 9728
    }
  ],
  "bufferViews": [
    {
      "buffer": 0,
      "byteOffset": 0,
      "byteLength": 164544,
      "target": 34962
    },
    {
      "buffer": 0,
      "byteOffset": 164544,
      "byteLength": 164544,
      "target": 34962
    },
    {
      "buffer": 0,
      "byteOffset": 329088,
      "byteLength": 109696,
      "target": 34962
    },
    {
      "buffer": 0,
      "byteOffset": 438784,
      "byteLength": 82272,
      "target": 34963
    },
    {
      "buffer": 0,
      "byteOffset": 521056,
      "byteLength": 384,
      "target": 34962
    },
    {
      "buffer": 0,
      "byteOffset": 521440,
      "byteLength": 384,
      "target": 34962
    },
    {
      "buffer": 0,
      "byteOffset": 521824,
      "byteLength": 256,
      "target": 34962
    },
    {
      "buffer": 0,
      "byteOffset": 522080,
      "byteLength": 192,
      "target": 34963
    }
  ],
  "accessors": [
    {
      "bufferView": 0,
      "componentType": 5126,
      "count": 13712,
      "type": "VEC3",
      "max": [
        28.0,
        140.0,
        15.0
      ],
      "min": [
        -26.0,
        0.0,
        -13.0
      ]
    },
    {
      "bufferView": 1,
      "componentType": 5126,
      "count": 13712,
      "type": "VEC3"
    },
    {
      "bufferView": 2,
      "componentType": 5126,
      "count": 13712,
      "type": "VEC2"
    },
    {
      "bufferView": 3,
      "componentType": 5125,
      "count": 20568,
      "type": "SCALAR"
    },
    {
      "bufferView": 4,
      "componentType": 5126,
      "count": 32,
      "type": "VEC3",
      "max": [
        6.0,
        12.0,
        -1.0
      ],
      "min": [
        -4.0,
        4.0,
        -5.0
      ]
    },
    {
      "bufferView": 5,
      "componentType": 5126,
      "count": 32,
      "type": "VEC3"
    },
    {
      "bufferView": 6,
      "componentType": 5126,
      "count": 32,
      "type": "VEC2"
    },
    {
      "bufferView": 7,
      "componentType": 5125,
      "count": 48,
      "type": "SCALAR"
    }
  ],
  "buffers": [
    {
      "byteLength": 522272,
      "uri": "stone_fireplace.bin"
    }
  ]
}