{
  "asset": {
    "version": "2.0"
  },
  "scenes": [
    {
      "nodes": [
        0
      ]
    }
  ],
  "nodes": [
    {
      "mesh": 0
    }
  ],
  "meshes": [
    {
      "primitives": [
        {
          "attributes": {
            "POSITION": 0,
            "NORMAL": 1,
            "TEXCOORD_0": 2
          },
          "indices": 3,
          "material": 0
        },
        {
          "attributes": {
            "POSITION": 4,
            "NORMAL": 5,
            "TEXCOORD_0": 6
          },
          "indices": 7,
          "material": 1
        }
      ]
    }
  ],
  "materials": [
    {
      "name": "Standard",
      "pbrMetallicRoughness": {
        "baseColorTexture": {
          "index": 0
        },
        "metallicFactor": 0.0,
        "roughnessFactor": 0.8
      }
    },
    {
      "name": "Emissive",
      "pbrMetallicRoughness": {
        "baseColorTexture": {
          "index": 0
        },
        "metallicFactor": 0.0,
        "roughnessFactor": 0.8
      },
      "emissiveTexture": {
        "index": 0
      },
      "emissiveFactor": [
        1.0,
        1.0,
        1.0
      ]
    }
  ],
  "textures": [
    {
      "source": 0
    }
  ],
  "images": [
    {
      "uri": "palette_texture.png"
    }
  ],
  "samplers": [
    {
      "magFilter": 9728,
      "minFilter": 9728
    }
  ],
  "bufferViews": [
    {
      "buffer": 0,
      "byteOffset": 0,
      "byteLength": 897120,
      "target": 34962
    },
    {
      "buffer": 0,
      "byteOffset": 897120,
      "byteLength": 897120,
      "target": 34962
    },
    {
      "buffer": 0,
      "byteOffset": 1794240,
      "byteLength": 598080,
      "target": 34962
    },
    {
      "buffer": 0,
      "byteOffset": 2392320,
      "byteLength": 448560,
      "target": 34963
    },
    {
      "buffer": 0,
      "byteOffset": 2840880,
      "byteLength": 6624,
      "target": 34962
    },
    {
      "buffer": 0,
      "byteOffset": 2847504,
      "byteLength": 6624,
      "target": 34962
    },
    {
      "buffer": 0,
      "byteOffset": 2854128,
      "byteLength": 4416,
      "target": 34962
    },
    {
      "buffer": 0,
      "byteOffset": 2858544,
      "byteLength": 3312,
      "target": 34963
    }
  ],
  "accessors": [
    {
      "bufferView": 0,
      "componentType": 5126,
      "count": 74760,
      "type": "VEC3",
      "max": [
        215.0,
        209.0,
        264.0
      ],
      "min": [
        -213.0,
        0.0,
        -263.0
      ]
    },
    {
      "bufferView": 1,
      "componentType": 5126,
      "count": 74760,
      "type": "VEC3"
    },
    {
      "bufferView": 2,
      "componentType": 5126,
      "count": 74760,
      "type": "VEC2"
    },
    {
      "bufferView": 3,
      "componentType": 5125,
      "count": 112140,
      "type": "SCALAR"
    },
    {
      "bufferView": 4,
      "componentType": 5126,
      "count": 552,
      "type": "VEC3",
      "max": [
        76.0,
        114.0,
        186.0
      ],
      "min": [
        -183.0,
        18.0,
        -55.0
      ]
    },
    {
      "bufferView": 5,
      "componentType": 5126,
      "count": 552,
      "type": "VEC3"
    },
    {
      "bufferView": 6,
      "componentType": 5126,
      "count": 552,
      "type": "VEC2"
    },
    {
      "bufferView": 7,
      "componentType": 5125,
      "count": 828,
      "type": "SCALAR"
    }
  ],
  "buffers": [
    {
      "byteLength": 2861856,
      "uri": "tavern.bin"
    }
  ]
}