{
  "asset": {
    "version": "2.0"
  },
  "scenes": [
    {
      "nodes": [
        0
      ]
    }
  ],
  "nodes": [
    {
      "mesh": 0
    }
  ],
  "meshes": [
    {
      "primitives": [
        {
          "attributes": {
            "POSITION": 0,
            "NORMAL": 1,
            "TEXCOORD_0": 2
          },
          "indices": 3,
          "material": 0
        },
        {
          "attributes": {
            "POSITION": 4,
            "NORMAL": 5,
            "TEXCOORD_0": 6
          },
          "indices": 7,
          "material": 1
        }
      ]
    }
  ],
  "materials": [
    {
      "name": "Standard",
      "pbrMetallicRoughness": {
        "baseColorTexture": {
          "index": 0
        },
        "metallicFactor": 0.0,
        "roughnessFactor": 0.8
      }
    },
    {
      "name": "Emissive",
      "pbrMetallicRoughness": {
        "baseColorTexture": {
          "index": 0
        },
        "metallicFactor": 0.0,
        "roughnessFactor": 0.8
      },
      "emissiveTexture": {
        "index": 0
      },
      "emissiveFactor": [
        1.0,
        1.0,
        1.0
      ]
    }
  ],
  "textures": [
    {
      "source": 0
    }
  ],
  "images": [
    {
      "uri": "palette_texture.png"
    }
  ],
  "samplers": [
    {
      "magFilter": 9728,
      "minFilter": 9728
    }
  ],
  "bufferViews": [
    {
      "buffer": 0,
      "byteOffset": 0,
      "byteLength": 1743600,
      "target": 34962
    },
    {
      "buffer": 0,
      "byteOffset": 1743600,
      "byteLength": 1743600,
      "target": 34962
    },
    {
      "buffer": 0,
      "byteOffset": 3487200,
      "byteLength": 1162400,
      "target": 34962
    },
    {
      "buffer": 0,
      "byteOffset": 4649600,
      "byteLength": 871800,
      "target": 34963
    },
    {
      "buffer": 0,
      "byteOffset": 5521400,
      "byteLength": 14832,
      "target": 34962
    },
    {
      "buffer": 0,
      "byteOffset": 5536232,
      "byteLength": 14832,
      "target": 34962
    },
    {
      "buffer": 0,
      "byteOffset": 5551064,
      "byteLength": 9888,
      "target": 34962
    },
    {
      "buffer": 0,
      "byteOffset": 5560952,
      "byteLength": 7416,
      "target": 34963
    }
  ],
  "accessors": [
    {
      "bufferView": 0,
      "componentType": 5126,
      "count": 145300,
      "type": "VEC3",
      "max": [
        318.0,
        209.0,
        264.0
      ],
      "min": [
        -317.0,
        0.0,
        -263.0
      ]
    },
    {
      "bufferView": 1,
      "componentType": 5126,
      "count": 145300,
      "type": "VEC3"
    },
    {
      "bufferView": 2,
      "componentType": 5126,
      "count": 145300,
      "type": "VEC2"
    },
    {
      "bufferView": 3,
      "componentType": 5125,
      "count": 217950,
      "type": "SCALAR"
    },
    {
      "bufferView": 4,
      "componentType": 5126,
      "count": 1236,
      "type": "VEC3",
      "max": [
        4.0,
        114.0,
        184.0
      ],
      "min": [
        -250.0,
        18.0,
        -48.0
      ]
    },
    {
      "bufferView": 5,
      "componentType": 5126,
      "count": 1236,
      "type": "VEC3"
    },
    {
      "bufferView": 6,
      "componentType": 5126,
      "count": 1236,
      "type": "VEC2"
    },
    {
      "bufferView": 7,
      "componentType": 5125,
      "count": 1854,
      "type": "SCALAR"
    }
  ],
  "buffers": [
    {
      "byteLength": 5568368,
      "uri": "tavern_layout.bin"
    }
  ]
}