{
  "asset": {
    "version": "2.0"
  },
  "scenes": [
    {
      "nodes": [
        0
      ]
    }
  ],
  "nodes": [
    {
      "mesh": 0
    }
  ],
  "meshes": [
    {
      "primitives": [
        {
          "attributes": {
            "POSITION": 0,
            "NORMAL": 1,
            "TEXCOORD_0": 2
          },
          "indices": 3,
          "material": 0
        },
        {
          "attributes": {
            "POSITION": 4,
            "NORMAL": 5,
            "TEXCOORD_0": 6
          },
          "indices": 7,
          "material": 1
        }
      ]
    }
  ],
  "materials": [
    {
      "name": "Standard",
      "pbrMetallicRoughness": {
        "baseColorTexture": {
          "index": 0
        },
        "metallicFactor": 0.0,
        "roughnessFactor": 0.8
      }
    },
    {
      "name": "Emissive",
      "pbrMetallicRoughness": {
        "baseColorTexture": {
          "index": 0
        },
        "metallicFactor": 0.0,
        "roughnessFactor": 0.8
      },
      "emissiveTexture": {
        "index": 0
      },
      "emissiveFactor": [
        1.0,
        1.0,
        1.0
      ]
    }
  ],
  "textures": [
    {
      "source": 0
    }
  ],
  "images": [
    {
      "uri": "palette_texture.png"
    }
  ],
  "samplers": [
    {
      "magFilter": 9728,
      "minFilter": 9728
    }
  ],
  "bufferViews": [
    {
      "buffer": 0,
      "byteOffset": 0,
      "byteLength": 81504,
      "target": 34962
    },
    {
      "buffer": 0,
      "byteOffset": 81504,
      "byteLength": 81504,
      "target": 34962
    },
    {
      "buffer": 0,
      "byteOffset": 163008,
      "byteLength": 54336,
      "target": 34962
    },
    {
      "buffer": 0,
      "byteOffset": 217344,
      "byteLength": 40752,
      "target": 34963
    },
    {
      "buffer": 0,
      "byteOffset": 258096,
      "byteLength": 1008,
      "target": 34962
    },
    {
      "buffer": 0,
      "byteOffset": 259104,
      "byteLength": 1008,
      "target": 34962
    },
    {
      "buffer": 0,
      "byteOffset": 260112,
      "byteLength": 672,
      "target": 34962
    },
    {
      "buffer": 0,
      "byteOffset": 260784,
      "byteLength": 504,
      "target": 34963
    }
  ],
  "accessors": [
    {
      "bufferView": 0,
      "componentType": 5126,
      "count": 6792,
      "type": "VEC3",
      "max": [
        44.0,
        47.0,
        3.0
      ],
      "min": [
        7.0,
        0.0,
        -6.0
      ]
    },
    {
      "bufferView": 1,
      "componentType": 5126,
      "count": 6792,
      "type": "VEC3"
    },
    {
      "bufferView": 2,
      "componentType": 5126,
      "count": 6792,
      "type": "VEC2"
    },
    {
      "bufferView": 3,
      "componentType": 5125,
      "count": 10188,
      "type": "SCALAR"
    },
    {
      "bufferView": 4,
      "componentType": 5126,
      "count": 84,
      "type": "VEC3",
      "max": [
        41.0,
        41.0,
        0.0
      ],
      "min": [
        32.0,
        29.0,
        -4.0
      ]
    },
    {
      "bufferView": 5,
      "componentType": 5126,
      "count": 84,
      "type": "VEC3"
    },
    {
      "bufferView": 6,
      "componentType": 5126,
      "count": 84,
      "type": "VEC2"
    },
    {
      "bufferView": 7,
      "componentType": 5125,
      "count": 126,
      "type": "SCALAR"
    }
  ],
  "buffers": [
    {
      "byteLength": 261288,
      "uri": "figurine_hero.bin"
    }
  ]
}