{
  "asset": {
    "version": "2.0"
  },
  "scenes": [
    {
      "nodes": [
        0
      ]
    }
  ],
  "nodes": [
    {
      "mesh": 0
    }
  ],
  "meshes": [
    {
      "primitives": [
        {
          "attributes": {
            "POSITION": 0,
            "NORMAL": 1,
            "TEXCOORD_0": 2
          },
          "indices": 3,
          "material": 0
        },
        {
          "attributes": {
            "POSITION": 4,
            "NORMAL": 5,
            "TEXCOORD_0": 6
          },
          "indices": 7,
          "material": 1
        }
      ]
    }
  ],
  "materials": [
    {
      "name": "Standard",
      "pbrMetallicRoughness": {
        "baseColorTexture": {
          "index": 0
        },
        "metallicFactor": 0.0,
        "roughnessFactor": 0.8
      }
    },
    {
      "name": "Emissive",
      "pbrMetallicRoughness": {
        "baseColorTexture": {
          "index": 0
        },
        "metallicFactor": 0.0,
        "roughnessFactor": 0.8
      },
      "emissiveTexture": {
        "index": 0
      },
      "emissiveFactor": [
        1.0,
        1.0,
        1.0
      ]
    }
  ],
  "textures": [
    {
      "source": 0
    }
  ],
  "images": [
    {
      "uri": "palette_texture.png"
    }
  ],
  "samplers": [
    {
      "magFilter": 9728,
      "minFilter": 9728
    }
  ],
  "bufferViews": [
    {
      "buffer": 0,
      "byteOffset": 0,
      "byteLength": 559296,
      "target": 34962
    },
    {
      "buffer": 0,
      "byteOffset": 559296,
      "byteLength": 559296,
      "target": 34962
    },
    {
      "buffer": 0,
      "byteOffset": 1118592,
      "byteLength": 372864,
      "target": 34962
    },
    {
      "buffer": 0,
      "byteOffset": 1491456,
      "byteLength": 279648,
      "target": 34963
    },
    {
      "buffer": 0,
      "byteOffset": 1771104,
      "byteLength": 50256,
      "target": 34962
    },
    {
      "buffer": 0,
      "byteOffset": 1821360,
      "byteLength": 50256,
      "target": 34962
    },
    {
      "buffer": 0,
      "byteOffset": 1871616,
      "byteLength": 33504,
      "target": 34962
    },
    {
      "buffer": 0,
      "byteOffset": 1905120,
      "byteLength": 25128,
      "target": 34963
    }
  ],
  "accessors": [
    {
      "bufferView": 0,
      "componentType": 5126,
      "count": 46608,
      "type": "VEC3",
      "max": [
        23.0,
        114.0,
        21.0
      ],
      "min": [
        -23.0,
        0.0,
        -36.0
      ]
    },
    {
      "bufferView": 1,
      "componentType": 5126,
      "count": 46608,
      "type": "VEC3"
    },
    {
      "bufferView": 2,
      "componentType": 5126,
      "count": 46608,
      "type": "VEC2"
    },
    {
      "bufferView": 3,
      "componentType": 5125,
      "count": 69912,
      "type": "SCALAR"
    },
    {
      "bufferView": 4,
      "componentType": 5126,
      "count": 4188,
      "type": "VEC3",
      "max": [
        4.0,
        120.0,
        -10.0
      ],
      "min": [
        -25.0,
        4.0,
        -39.0
      ]
    },
    {
      "bufferView": 5,
      "componentType": 5126,
      "count": 4188,
      "type": "VEC3"
    },
    {
      "bufferView": 6,
      "componentType": 5126,
      "count": 4188,
      "type": "VEC2"
    },
    {
      "bufferView": 7,
      "componentType": 5125,
      "count": 6282,
      "type": "SCALAR"
    }
  ],
  "buffers": [
    {
      "byteLength": 1930248,
      "uri": "pyromancer_ultra.bin"
    }
  ]
}