{
  "asset": {
    "version": "2.0"
  },
  "scenes": [
    {
      "nodes": [
        0
      ]
    }
  ],
  "nodes": [
    {
      "mesh": 0
    }
  ],
  "meshes": [
    {
      "primitives": [
        {
          "attributes": {
            "POSITION": 0,
            "NORMAL": 1,
            "TEXCOORD_0": 2
          },
          "indices": 3,
          "material": 0
        },
        {
          "attributes": {
            "POSITION": 4,
            "NORMAL": 5,
            "TEXCOORD_0": 6
          },
          "indices": 7,
          "material": 1
        }
      ]
    }
  ],
  "materials": [
    {
      "name": "Standard",
      "pbrMetallicRoughness": {
        "baseColorTexture": {
          "index": 0
        },
        "metallicFactor": 0.0,
        "roughnessFactor": 0.8
      }
    },
    {
      "name": "Emissive",
      "pbrMetallicRoughness": {
        "baseColorTexture": {
          "index": 0
        },
        "metallicFactor": 0.0,
        "roughnessFactor": 0.8
      },
      "emissiveTexture": {
        "index": 0
      },
      "emissiveFactor": [
        1.0,
        1.0,
        1.0
      ]
    }
  ],
  "textures": [
    {
      "source": 0
    }
  ],
  "images": [
    {
      "uri": "palette_texture.png"
    }
  ],
  "samplers": [
    {
      "magFilter": 9728,
      "minFilter": 9728
    }
  ],
  "bufferViews": [
    {
      "buffer": 0,
      "byteOffset": 0,
      "byteLength": 43824,
      "target": 34962
    },
    {
      "buffer": 0,
      "byteOffset": 43824,
      "byteLength": 43824,
      "target": 34962
    },
    {
      "buffer": 0,
      "byteOffset": 87648,
      "byteLength": 29216,
      "target": 34962
    },
    {
      "buffer": 0,
      "byteOffset": 116864,
      "byteLength": 21912,
      "target": 34963
    },
    {
      "buffer": 0,
      "byteOffset": 138776,
      "byteLength": 15504,
      "target": 34962
    },
    {
      "buffer": 0,
      "byteOffset": 154280,
      "byteLength": 15504,
      "target": 34962
    },
    {
      "buffer": 0,
      "byteOffset": 169784,
      "byteLength": 10336,
      "target": 34962
    },
    {
      "buffer": 0,
      "byteOffset": 180120,
      "byteLength": 7752,
      "target": 34963
    }
  ],
  "accessors": [
    {
      "bufferView": 0,
      "componentType": 5126,
      "count": 3652,
      "type": "VEC3",
      "max": [
        12.0,
        64.0,
        10.0
      ],
      "min": [
        -12.0,
        0.0,
        -16.0
      ]
    },
    {
      "bufferView": 1,
      "componentType": 5126,
      "count": 3652,
      "type": "VEC3"
    },
    {
      "bufferView": 2,
      "componentType": 5126,
      "count": 3652,
      "type": "VEC2"
    },
    {
      "bufferView": 3,
      "componentType": 5125,
      "count": 5478,
      "type": "SCALAR"
    },
    {
      "bufferView": 4,
      "componentType": 5126,
      "count": 1292,
      "type": "VEC3",
      "max": [
        0.0,
        64.0,
        -5.0
      ],
      "min": [
        -13.0,
        46.0,
        -17.0
      ]
    },
    {
      "bufferView": 5,
      "componentType": 5126,
      "count": 1292,
      "type": "VEC3"
    },
    {
      "bufferView": 6,
      "componentType": 5126,
      "count": 1292,
      "type": "VEC2"
    },
    {
      "bufferView": 7,
      "componentType": 5125,
      "count": 1938,
      "type": "SCALAR"
    }
  ],
  "buffers": [
    {
      "byteLength": 187872,
      "uri": "pyromancer_hd.bin"
    }
  ]
}