{
  "asset": {
    "version": "2.0"
  },
  "scenes": [
    {
      "nodes": [
        0
      ]
    }
  ],
  "nodes": [
    {
      "mesh": 0
    }
  ],
  "meshes": [
    {
      "primitives": [
        {
          "attributes": {
            "POSITION": 0,
            "NORMAL": 1,
            "TEXCOORD_0": 2
          },
          "indices": 3,
          "material": 0
        },
        {
          "attributes": {
            "POSITION": 4,
            "NORMAL": 5,
            "TEXCOORD_0": 6
          },
          "indices": 7,
          "material": 1
        }
      ]
    }
  ],
  "materials": [
    {
      "name": "Standard",
      "pbrMetallicRoughness": {
        "baseColorTexture": {
          "index": 0
        },
        "metallicFactor": 0.0,
        "roughnessFactor": 0.8
      }
    },
    {
      "name": "Emissive",
      "pbrMetallicRoughness": {
        "baseColorTexture": {
          "index": 0
        },
        "metallicFactor": 0.0,
        "roughnessFactor": 0.8
      },
      "emissiveTexture": {
        "index": 0
      },
      "emissiveFactor": [
        1.0,
        1.0,
        1.0
      ]
    }
  ],
  "textures": [
    {
      "source": 0
    }
  ],
  "images": [
    {
      "uri": "palette_texture.png"
    }
  ],
  "samplers": [
    {
      "magFilter": 9728,
      "minFilter": 9728
    }
  ],
  "bufferViews": [
    {
      "buffer": 0,
      "byteOffset": 0,
      "byteLength": 700944,
      "target": 34962
    },
    {
      "buffer": 0,
      "byteOffset": 700944,
      "byteLength": 700944,
      "target": 34962
    },
    {
      "buffer": 0,
      "byteOffset": 1401888,
      "byteLength": 467296,
      "target": 34962
    },
    {
      "buffer": 0,
      "byteOffset": 1869184,
      "byteLength": 350472,
      "target": 34963
    },
    {
      "buffer": 0,
      "byteOffset": 2219656,
      "byteLength": 3840,
      "target": 34962
    },
    {
      "buffer": 0,
      "byteOffset": 2223496,
      "byteLength": 3840,
      "target": 34962
    },
    {
      "buffer": 0,
      "byteOffset": 2227336,
      "byteLength": 2560,
      "target": 34962
    },
    {
      "buffer": 0,
      "byteOffset": 2229896,
      "byteLength": 1920,
      "target": 34963
    }
  ],
  "accessors": [
    {
      "bufferView": 0,
      "componentType": 5126,
      "count": 58412,
      "type": "VEC3",
      "max": [
        455.0,
        140.0,
        333.0
      ],
      "min": [
        0.0,
        0.0,
        -121.0
      ]
    },
    {
      "bufferView": 1,
      "componentType": 5126,
      "count": 58412,
      "type": "VEC3"
    },
    {
      "bufferView": 2,
      "componentType": 5126,
      "count": 58412,
      "type": "VEC2"
    },
    {
      "bufferView": 3,
      "componentType": 5125,
      "count": 87618,
      "type": "SCALAR"
    },
    {
      "bufferView": 4,
      "componentType": 5126,
      "count": 320,
      "type": "VEC3",
      "max": [
        248.0,
        70.0,
        328.0
      ],
      "min": [
        50.0,
        8.0,
        161.0
      ]
    },
    {
      "bufferView": 5,
      "componentType": 5126,
      "count": 320,
      "type": "VEC3"
    },
    {
      "bufferView": 6,
      "componentType": 5126,
      "count": 320,
      "type": "VEC2"
    },
    {
      "bufferView": 7,
      "componentType": 5125,
      "count": 480,
      "type": "SCALAR"
    }
  ],
  "buffers": [
    {
      "byteLength": 2231816,
      "uri": "tavern.bin"
    }
  ]
}