{
  "asset": {
    "version": "2.0"
  },
  "scenes": [
    {
      "nodes": [
        0
      ]
    }
  ],
  "nodes": [
    {
      "mesh": 0
    }
  ],
  "meshes": [
    {
      "primitives": [
        {
          "attributes": {
            "POSITION": 0,
            "NORMAL": 1,
            "TEXCOORD_0": 2
          },
          "indices": 3,
          "material": 0
        },
        {
          "attributes": {
            "POSITION": 4,
            "NORMAL": 5,
            "TEXCOORD_0": 6
          },
          "indices": 7,
          "material": 1
        }
      ]
    }
  ],
  "materials": [
    {
      "name": "Standard",
      "pbrMetallicRoughness": {
        "baseColorTexture": {
          "index": 0
        },
        "metallicFactor": 0.0,
        "roughnessFactor": 0.8
      }
    },
    {
      "name": "Emissive",
      "pbrMetallicRoughness": {
        "baseColorTexture": {
          "index": 0
        },
        "metallicFactor": 0.0,
        "roughnessFactor": 0.8
      },
      "emissiveTexture": {
        "index": 0
      },
      "emissiveFactor": [
        1.0,
        1.0,
        1.0
      ]
    }
  ],
  "textures": [
    {
      "source": 0
    }
  ],
  "images": [
    {
      "uri": "palette_texture.png"
    }
  ],
  "samplers": [
    {
      "magFilter": 9728,
      "minFilter": 9728
    }
  ],
  "bufferViews": [
    {
      "buffer": 0,
      "byteOffset": 0,
      "byteLength": 4704,
      "target": 34962
    },
    {
      "buffer": 0,
      "byteOffset": 4704,
      "byteLength": 4704,
      "target": 34962
    },
    {
      "buffer": 0,
      "byteOffset": 9408,
      "byteLength": 3136,
      "target": 34962
    },
    {
      "buffer": 0,
      "byteOffset": 12544,
      "byteLength": 2352,
      "target": 34963
    },
    {
      "buffer": 0,
      "byteOffset": 14896,
      "byteLength": 2352,
      "target": 34962
    },
    {
      "buffer": 0,
      "byteOffset": 17248,
      "byteLength": 2352,
      "target": 34962
    },
    {
      "buffer": 0,
      "byteOffset": 19600,
      "byteLength": 1568,
      "target": 34962
    },
    {
      "buffer": 0,
      "byteOffset": 21168,
      "byteLength": 1176,
      "target": 34963
    }
  ],
  "accessors": [
    {
      "bufferView": 0,
      "componentType": 5126,
      "count": 392,
      "type": "VEC3",
      "max": [
        8.0,
        13.0,
        6.0
      ],
      "min": [
        -7.0,
        -9.0,
        -2.0
      ]
    },
    {
      "bufferView": 1,
      "componentType": 5126,
      "count": 392,
      "type": "VEC3"
    },
    {
      "bufferView": 2,
      "componentType": 5126,
      "count": 392,
      "type": "VEC2"
    },
    {
      "bufferView": 3,
      "componentType": 5125,
      "count": 588,
      "type": "SCALAR"
    },
    {
      "bufferView": 4,
      "componentType": 5126,
      "count": 196,
      "type": "VEC3",
      "max": [
        4.0,
        11.0,
        6.0
      ],
      "min": [
        -3.0,
        -6.0,
        2.0
      ]
    },
    {
      "bufferView": 5,
      "componentType": 5126,
      "count": 196,
      "type": "VEC3"
    },
    {
      "bufferView": 6,
      "componentType": 5126,
      "count": 196,
      "type": "VEC2"
    },
    {
      "bufferView": 7,
      "componentType": 5125,
      "count": 294,
      "type": "SCALAR"
    }
  ],
  "buffers": [
    {
      "byteLength": 22344,
      "uri": "trophy_wall.bin"
    }
  ]
}