{
  "asset": {
    "version": "2.0"
  },
  "scenes": [
    {
      "nodes": [
        0
      ]
    }
  ],
  "nodes": [
    {
      "mesh": 0
    }
  ],
  "meshes": [
    {
      "primitives": [
        {
          "attributes": {
            "POSITION": 0,
            "NORMAL": 1,
            "TEXCOORD_0": 2
          },
          "indices": 3,
          "material": 0
        },
        {
          "attributes": {
            "POSITION": 4,
            "NORMAL": 5,
            "TEXCOORD_0": 6
          },
          "indices": 7,
          "material": 1
        }
      ]
    }
  ],
  "materials": [
    {
      "name": "Standard",
      "pbrMetallicRoughness": {
        "baseColorTexture": {
          "index": 0
        },
        "metallicFactor": 0.0,
        "roughnessFactor": 0.8
      }
    },
    {
      "name": "Emissive",
      "pbrMetallicRoughness": {
        "baseColorTexture": {
          "index": 0
        },
        "metallicFactor": 0.0,
        "roughnessFactor": 0.8
      },
      "emissiveTexture": {
        "index": 0
      },
      "emissiveFactor": [
        1.0,
        1.0,
        1.0
      ]
    }
  ],
  "textures": [
    {
      "source": 0
    }
  ],
  "images": [
    {
      "uri": "palette_texture.png"
    }
  ],
  "samplers": [
    {
      "magFilter": 9728,
      "minFilter": 9728
    }
  ],
  "bufferViews": [
    {
      "buffer": 0,
      "byteOffset": 0,
      "byteLength": 1872,
      "target": 34962
    },
    {
      "buffer": 0,
      "byteOffset": 1872,
      "byteLength": 1872,
      "target": 34962
    },
    {
      "buffer": 0,
      "byteOffset": 3744,
      "byteLength": 1248,
      "target": 34962
    },
    {
      "buffer": 0,
      "byteOffset": 4992,
      "byteLength": 936,
      "target": 34963
    },
    {
      "buffer": 0,
      "byteOffset": 5928,
      "byteLength": 432,
      "target": 34962
    },
    {
      "buffer": 0,
      "byteOffset": 6360,
      "byteLength": 432,
      "target": 34962
    },
    {
      "buffer": 0,
      "byteOffset": 6792,
      "byteLength": 288,
      "target": 34962
    },
    {
      "buffer": 0,
      "byteOffset": 7080,
      "byteLength": 216,
      "target": 34963
    }
  ],
  "accessors": [
    {
      "bufferView": 0,
      "componentType": 5126,
      "count": 156,
      "type": "VEC3",
      "max": [
        15.0,
        33.0,
        6.0
      ],
      "min": [
        -14.0,
        0.0,
        1.0
      ]
    },
    {
      "bufferView": 1,
      "componentType": 5126,
      "count": 156,
      "type": "VEC3"
    },
    {
      "bufferView": 2,
      "componentType": 5126,
      "count": 156,
      "type": "VEC2"
    },
    {
      "bufferView": 3,
      "componentType": 5125,
      "count": 234,
      "type": "SCALAR"
    },
    {
      "bufferView": 4,
      "componentType": 5126,
      "count": 36,
      "type": "VEC3",
      "max": [
        11.0,
        31.0,
        2.0
      ],
      "min": [
        -10.0,
        2.0,
        0.0
      ]
    },
    {
      "bufferView": 5,
      "componentType": 5126,
      "count": 36,
      "type": "VEC3"
    },
    {
      "bufferView": 6,
      "componentType": 5126,
      "count": 36,
      "type": "VEC2"
    },
    {
      "bufferView": 7,
      "componentType": 5125,
      "count": 54,
      "type": "SCALAR"
    }
  ],
  "buffers": [
    {
      "byteLength": 7296,
      "uri": "window.bin"
    }
  ]
}